<svg xmlns="http://www.w3.org/2000/svg" viewBox="0 0 797.4 160" enable-background="new 0 0 797.4 160"><g fill="#E6E6EC" stroke="#E6E6EC" stroke-width="10" stroke-miterlimit="10"><path d="M5 5h15.6l59.3 77.4L139.4 5H155v150h-28.6V68.8l-46.5 60L33.6 69v86H5V5zm234.5 52.4L199.3 155h-31.8L230.3 5h18.6l62.6 150h-31.6l-40.4-97.6zm0 0"/><path d="M335 108.6c3.4 12.7 15.4 20.3 28.4 20.3 11.8 0 21.6-5.3 21.6-17.9 0-23-69.4-16.6-69.4-61.9 0-25.9 24.2-44 49.6-44 21.8 0 39.1 9.4 47.9 29l-27.5 12.1c-3.4-8.6-10.6-14.6-20.4-14.6s-20 7.4-20 17.5c0 22.2 69.6 15.8 69.6 61.9 0 31-24.8 44-53.6 44-23.4 0-45.8-11.5-53-34.3l26.8-12.1zM512.6 155h-87.9V5h30v122.2h57.9V155zm72.5 0c-41.1 0-75-33.5-75-75 0-41.3 33.9-75 75-75s75 33.7 75 75c0 41.5-33.9 75-75 75zm0-120.9c-25.4 0-45.9 20.7-45.9 45.9s20.9 45.9 45.9 45.9S631 105.2 631 80s-20.9-45.9-45.9-45.9zM758.2 5h31.6l-62.7 150h-18.6L645.9 5h31.8l40.1 101.6L758.2 5z"/></g></svg>