<svg xmlns="http://www.w3.org/2000/svg" viewBox="-743 745 512 512" enable-background="new -743 745 512 512"><path d="M-574.4 1043.5h-113c-30.8 0-55.7-24.3-55.7-54.3v-190c0-30 24.8-54.2 55.5-54.2h194c30.8 0 55.7 24.3 55.7 54.3v122h-43c-6 0-12 .6-18 1.7-2.4-19.2-15.7-37-37.2-47 1.7-6.4 2.6-11 3.6-15.7l-29-5.5c-.5 2.4-1.3 7-3 13-9.7-1.5-20-1.7-30.7-.6 0-7 .6-13.7 1.2-20.2h32.4v-27H-590c1.5-6.8 2.7-10.8 4-14.7l-28.4-8.3c-2 6.8-3.8 13.4-5.6 23h-32.3v27h28.8c-.8 8.7-1.2 17.7-1.4 26.8-69.3 25-51.6 99 3.4 94 37-3.2 61.6-30.5 76-64 13 7.3 19.4 19 17.3 30.3-27.6 16-46 45.4-46 79v30.5zm.3-147.8c-4.7 10-10.8 20-18.5 27.7-1.2-8.3-2-17.4-2.4-27.2 7-1 14.2-1 21-.5zm-50 9.3c.7 12.2 2 23.5 4 33.5-26.2 4.7-27.3-20.7-4-33.5zm258.3 124.4H-397l-59.3 151h32.4l14-38.6h56.3l14 38.7h33.4l-59.4-151zm-35.3 88l19.4-54 19.3 54H-401zm108.2-121.2c13 0 23.3 10.2 23.3 22.8v177.6c0 12.6-10.4 22.8-23.3 22.8h-181.7c-12.8 0-23.2-10-23.2-22.7V1019c0-12.6 10.4-22.8 23.2-22.8h181.7zm61.8 16.7c0-30-25-54.4-55.6-54.4h-194c-30.8 0-55.7 26.8-55.7 56.8v187.3c0 30 25 54.3 55.6 54.3h194c30.8 0 55.7-24.3 55.7-54.3V1013z"/></svg>