<svg xmlns="http://www.w3.org/2000/svg" viewBox="0 0 256 256" enable-background="new 0 0 256 256"><path d="M155.8 94l-17-18 72-76L256 47.7l-72 76-9-9.4 63.2-66.7L211 18.8l-30.8 32.6 8 8.5-4.4 4.6-8-8.5-5 5.2 8.2 8.5-4.5 4.7-8-8.5-4.8 5 8 8.4-4.4 4.7-8-8.4-5 5 8.2 8.6-4.7 5zM221.3 48c0-6.2-4.8-11.3-10.7-11.3-6 0-10.7 5-10.7 11.3S204.6 59 210.5 59c6 0 10.7-5 10.7-11.2zm-45 184.3l43-45L79 39 36.3 84.2l140.2 148zM67 26L43 .8 0 46l24 25.4L67 26zm121.6 219l53.7 10.3-10.8-55.7-43 45.3zm-130-8l-27.3-28.7 7.2-7.6 8 8.5 4.6-4.7-8-8.5 5-5.2 8 8.5 4.5-4.7-8-8.5 4.7-5 8 8.5 4.6-4.7-8-8.5 4.6-5 8 8.5L79 175l-8-8.4 4.7-5 8 8.4 4.6-4.7-17-18-58 61L58.6 256l58-61-9-9.6-49 51.7z"/></svg>