<svg xmlns="http://www.w3.org/2000/svg" viewBox="-615 896 256 210" enable-background="new -615 896 256 210"><path d="M-359 921c-9.4 4-19.5 7-30.2 8.2 10.8-6.6 19.2-17 23-29.3-10 6-21.3 10.3-33.3 12.7-9.6-10.3-23.2-16.7-38.3-16.7-34 0-58.8 32-51.2 65.2-43.7-2.2-82.4-23.3-108.3-55.4-13.8 23.8-7 55 16.3 70.8-8.6-.3-16.7-2.7-23.8-6.6-.6 24.6 17 47.5 42 52.7-7.3 2-15.4 2.5-23.6 1 6.7 21 26 36.3 49 36.7-22 17.5-49.8 25.3-77.7 22 23 15 50.7 23.8 80.3 23.8 97.5 0 152.6-83 149.3-157.7 10.4-7.7 19.3-17 26.3-27.6z"/></svg>